<svg width="16" height="16" viewBox="0 0 16 16" fill="none" xmlns="http://www.w3.org/2000/svg">
<path d="M8.53475 2.35749L9.63543 4.33758C9.78624 4.60937 10.1647 4.86757 10.476 4.90247L12.3287 5.13415C13.515 5.27993 13.8209 6.11743 13.0136 6.99466L11.6382 8.48078C11.4086 8.72983 11.2894 9.20494 11.3816 9.53104L11.8635 11.2807C12.2426 12.662 11.5217 13.2346 10.255 12.5561L8.48535 11.6081C8.16306 11.4348 7.65112 11.46 7.34834 11.6546L5.66373 12.7393C4.45779 13.5146 3.69041 13.0042 3.95503 11.5978L4.29388 9.81787C4.35714 9.48516 4.20547 9.02087 3.95512 8.79246L2.45304 7.422C1.57642 6.6159 1.81222 5.75675 2.98036 5.51317L4.80432 5.13416C5.11214 5.06764 5.46887 4.78694 5.59411 4.50134L6.52858 2.43449C7.03936 1.32091 7.9405 1.28582 8.53475 2.35749Z" fill="#FFBD39"/>
</svg>
